<?xml version="1.0" encoding="UTF-8" standalone="no"?>
<svg
   xmlns:osb="http://www.openswatchbook.org/uri/2009/osb"
   xmlns:dc="http://purl.org/dc/elements/1.1/"
   xmlns:cc="http://creativecommons.org/ns#"
   xmlns:rdf="http://www.w3.org/1999/02/22-rdf-syntax-ns#"
   xmlns:svg="http://www.w3.org/2000/svg"
   xmlns="http://www.w3.org/2000/svg"
   xmlns:xlink="http://www.w3.org/1999/xlink"
   xmlns:sodipodi="http://sodipodi.sourceforge.net/DTD/sodipodi-0.dtd"
   xmlns:inkscape="http://www.inkscape.org/namespaces/inkscape"
   width="193.67264"
   height="200"
   viewBox="0 0 193.67264 200"
   id="svg2"
   version="1.1"
   inkscape:version="0.91 r13725"
   sodipodi:docname="button-power-on.svg">
  <metadata
     id="metadata10">
    <rdf:RDF>
      <cc:Work
         rdf:about="">
        <dc:format>image/svg+xml</dc:format>
        <dc:type
           rdf:resource="http://purl.org/dc/dcmitype/StillImage" />
        <dc:title></dc:title>
      </cc:Work>
    </rdf:RDF>
  </metadata>
  <defs
     id="defs8">
    <inkscape:path-effect
       is_visible="true"
       id="path-effect4886"
       effect="spiro" />
    <inkscape:path-effect
       effect="spiro"
       id="path-effect4882"
       is_visible="true" />
    <inkscape:path-effect
       effect="spiro"
       id="path-effect4878"
       is_visible="true" />
    <linearGradient
       osb:paint="solid"
       id="linearGradient4444">
      <stop
         id="stop4446"
         offset="0"
         style="stop-color:#002fa7;stop-opacity:1;" />
    </linearGradient>
    <linearGradient
       gradientUnits="userSpaceOnUse"
       y2="393.59521"
       x2="3401.6096"
       y1="393.59521"
       x1="1481.6096"
       id="linearGradient4448"
       xlink:href="#linearGradient4444"
       inkscape:collect="always" />
    <linearGradient
       gradientTransform="translate(-1761.6116,2283.4524)"
       y2="393.59521"
       x2="3401.6096"
       y1="393.59521"
       x1="1481.6096"
       gradientUnits="userSpaceOnUse"
       id="linearGradient4452"
       xlink:href="#linearGradient4444"
       inkscape:collect="always" />
    <clipPath
       clipPathUnits="userSpaceOnUse"
       id="clipPath8097">
      <rect
         style="display:inline;opacity:1;fill:#757575;fill-opacity:1;fill-rule:nonzero;stroke:none;stroke-width:3.5;stroke-linecap:round;stroke-linejoin:round;stroke-miterlimit:4;stroke-dasharray:none;stroke-dashoffset:263;stroke-opacity:1"
         id="rect8099"
         width="600"
         height="436.36365"
         x="1762.1588"
         y="-1034.2781"
         ry="40.909092"
         rx="40.909092"
         clip-path="none"
         mask="none" />
    </clipPath>
    <clipPath
       id="clipPath8097-5"
       clipPathUnits="userSpaceOnUse">
      <rect
         mask="none"
         clip-path="none"
         rx="40.909092"
         ry="40.909092"
         y="-1034.2781"
         x="1762.1588"
         height="436.36365"
         width="600"
         id="rect8099-3"
         style="display:inline;opacity:1;fill:#757575;fill-opacity:1;fill-rule:nonzero;stroke:none;stroke-width:3.5;stroke-linecap:round;stroke-linejoin:round;stroke-miterlimit:4;stroke-dasharray:none;stroke-dashoffset:263;stroke-opacity:1" />
    </clipPath>
    <filter
       inkscape:collect="always"
       style="color-interpolation-filters:sRGB"
       id="filter4201"
       x="-0.012"
       width="1.024"
       y="-0.012"
       height="1.024">
      <feGaussianBlur
         inkscape:collect="always"
         stdDeviation="0.22"
         id="feGaussianBlur4203" />
    </filter>
  </defs>
  <sodipodi:namedview
     pagecolor="#ffffff"
     bordercolor="#666666"
     borderopacity="1"
     objecttolerance="10"
     gridtolerance="10"
     guidetolerance="10"
     inkscape:pageopacity="0"
     inkscape:pageshadow="2"
     inkscape:window-width="1262"
     inkscape:window-height="799"
     id="namedview6"
     showgrid="false"
     fit-margin-top="0"
     fit-margin-left="0"
     fit-margin-right="0"
     fit-margin-bottom="0"
     inkscape:zoom="0.37249375"
     inkscape:cx="-249.17563"
     inkscape:cy="-65.451132"
     inkscape:window-x="0"
     inkscape:window-y="0"
     inkscape:window-maximized="0"
     inkscape:current-layer="svg2" />
  <g
     id="g4307"
     transform="translate(943.48039,-234.10168)">
    <circle
       transform="matrix(4.2984871,0,0,4.2984871,217.63814,-2147.0461)"
       style="opacity:0.2;fill:#696969;fill-opacity:1;fill-rule:nonzero;stroke:none;stroke-width:3.5;stroke-linecap:round;stroke-linejoin:round;stroke-miterlimit:4;stroke-dasharray:none;stroke-dashoffset:263;stroke-opacity:1;filter:url(#filter4201)"
       id="circle4198"
       cx="-247.5946"
       cy="577.9502"
       r="22" />
    <circle
       style="opacity:0.2;fill:#f5f5f5;fill-opacity:1;fill-rule:nonzero;stroke:none;stroke-width:3.5;stroke-linecap:round;stroke-linejoin:round;stroke-miterlimit:4;stroke-dasharray:none;stroke-dashoffset:263;stroke-opacity:1"
       id="circle4193"
       cx="-846.64423"
       cy="328.6684"
       r="94.566711" />
    <circle
       r="94.566711"
       cy="332.96713"
       cx="-846.6441"
       id="circle4191"
       style="opacity:1;fill:#ffffff;fill-opacity:1;fill-rule:nonzero;stroke:none;stroke-width:3.5;stroke-linecap:round;stroke-linejoin:round;stroke-miterlimit:4;stroke-dasharray:none;stroke-dashoffset:263;stroke-opacity:1" />
  </g>
  <path
     d="m 129.72093,102.74041 q 0,6.67965 -2.61193,12.75991 -2.61192,6.08019 -7.02224,10.49054 -4.4103,4.41027 -10.49052,7.02221 -6.08023,2.61194 -12.759919,2.61194 -6.67968,0 -12.75991,-2.61194 -6.08022,-2.61194 -10.49053,-7.02221 -4.41031,-4.41035 -7.02223,-10.49054 -2.61193,-6.08026 -2.61193,-12.75991 0,-7.792965 3.44689,-14.686755 3.44689,-6.89379 9.69839,-11.56098 1.8412,-1.37022 4.08917,-1.07045 2.24797,0.2997 3.57534,2.14089 1.37019,1.79841 1.04905,4.04633 -0.32113,2.24799 -2.11951,3.61821 -4.19622,3.16855 -6.48701,7.7501 -2.29079,4.58162 -2.29079,9.762655 0,4.45312 1.73416,8.49945 1.73414,4.04633 4.68862,7.00082 2.95448,2.9545 7.00082,4.68866 4.04635,1.73416 8.49947,1.73416 4.453129,0 8.499479,-1.73416 4.04634,-1.73416 7.00082,-4.68866 2.95448,-2.95449 4.68862,-7.00082 1.73416,-4.04633 1.73416,-8.49945 0,-5.181035 -2.29079,-9.762655 -2.29079,-4.58155 -6.48701,-7.7501 -1.79838,-1.37022 -2.11951,-3.61821 -0.32114,-2.24792 1.04905,-4.04633 1.32737,-1.84119 3.59676,-2.14089 2.26937,-0.29977 4.06775,1.07045 6.2515,4.66719 9.69839,11.56098 3.44689,6.89379 3.44689,14.686755 z m -27.40384,-32.884615 0,27.40381 q 0,2.2266 -1.6271,3.853675 -1.627099,1.62713 -3.853669,1.62713 -2.22656,0 -3.85366,-1.62713 -1.62711,-1.627075 -1.62711,-3.853675 l 0,-27.40381 q 0,-2.22653 1.62711,-3.85366 1.6271,-1.62713 3.85366,-1.62713 2.22657,0 3.853669,1.62713 1.6271,1.62713 1.6271,3.85366 z"
     id="path4"
     inkscape:connector-curvature="0"
     style="fill:#3f51b5;fill-opacity:1" />
  <text
     xml:space="preserve"
     style="font-style:normal;font-variant:normal;font-weight:normal;font-stretch:normal;font-size:180px;line-height:125%;font-family:Griffo;-inkscape-font-specification:Griffo;text-align:start;letter-spacing:0px;word-spacing:0px;writing-mode:lr-tb;text-anchor:start;fill:#000000;fill-opacity:1;stroke:none;stroke-width:1px;stroke-linecap:butt;stroke-linejoin:miter;stroke-opacity:1"
     x="-1775.1007"
     y="892.92627"
     id="text4157"
     sodipodi:linespacing="125%"><tspan
       sodipodi:role="line"
       id="tspan4159"
       x="-1775.1007"
       y="892.92627"
       style="font-style:normal;font-variant:normal;font-weight:bold;font-stretch:normal;font-family:'Open Sans';-inkscape-font-specification:'Open Sans Bold'" /></text>
</svg>
