<?xml version="1.0" encoding="UTF-8" standalone="no"?>
<svg
   xmlns:osb="http://www.openswatchbook.org/uri/2009/osb"
   xmlns:dc="http://purl.org/dc/elements/1.1/"
   xmlns:cc="http://creativecommons.org/ns#"
   xmlns:rdf="http://www.w3.org/1999/02/22-rdf-syntax-ns#"
   xmlns:svg="http://www.w3.org/2000/svg"
   xmlns="http://www.w3.org/2000/svg"
   xmlns:xlink="http://www.w3.org/1999/xlink"
   xmlns:sodipodi="http://sodipodi.sourceforge.net/DTD/sodipodi-0.dtd"
   xmlns:inkscape="http://www.inkscape.org/namespaces/inkscape"
   width="193.67264"
   height="200"
   viewBox="0 0 193.67264 200"
   id="svg2"
   version="1.1"
   inkscape:version="0.91 r13725"
   sodipodi:docname="button-handshake.svg">
  <metadata
     id="metadata10">
    <rdf:RDF>
      <cc:Work
         rdf:about="">
        <dc:format>image/svg+xml</dc:format>
        <dc:type
           rdf:resource="http://purl.org/dc/dcmitype/StillImage" />
        <dc:title />
      </cc:Work>
    </rdf:RDF>
  </metadata>
  <defs
     id="defs8">
    <inkscape:path-effect
       is_visible="true"
       id="path-effect4886"
       effect="spiro" />
    <inkscape:path-effect
       effect="spiro"
       id="path-effect4882"
       is_visible="true" />
    <inkscape:path-effect
       effect="spiro"
       id="path-effect4878"
       is_visible="true" />
    <linearGradient
       osb:paint="solid"
       id="linearGradient4444">
      <stop
         id="stop4446"
         offset="0"
         style="stop-color:#002fa7;stop-opacity:1;" />
    </linearGradient>
    <linearGradient
       gradientUnits="userSpaceOnUse"
       y2="393.59521"
       x2="3401.6096"
       y1="393.59521"
       x1="1481.6096"
       id="linearGradient4448"
       xlink:href="#linearGradient4444"
       inkscape:collect="always" />
    <linearGradient
       gradientTransform="translate(-1761.6116,2283.4524)"
       y2="393.59521"
       x2="3401.6096"
       y1="393.59521"
       x1="1481.6096"
       gradientUnits="userSpaceOnUse"
       id="linearGradient4452"
       xlink:href="#linearGradient4444"
       inkscape:collect="always" />
    <clipPath
       clipPathUnits="userSpaceOnUse"
       id="clipPath8097">
      <rect
         style="display:inline;opacity:1;fill:#757575;fill-opacity:1;fill-rule:nonzero;stroke:none;stroke-width:3.5;stroke-linecap:round;stroke-linejoin:round;stroke-miterlimit:4;stroke-dasharray:none;stroke-dashoffset:263;stroke-opacity:1"
         id="rect8099"
         width="600"
         height="436.36365"
         x="1762.1588"
         y="-1034.2781"
         ry="40.909092"
         rx="40.909092"
         clip-path="none"
         mask="none" />
    </clipPath>
    <clipPath
       id="clipPath8097-5"
       clipPathUnits="userSpaceOnUse">
      <rect
         mask="none"
         clip-path="none"
         rx="40.909092"
         ry="40.909092"
         y="-1034.2781"
         x="1762.1588"
         height="436.36365"
         width="600"
         id="rect8099-3"
         style="display:inline;opacity:1;fill:#757575;fill-opacity:1;fill-rule:nonzero;stroke:none;stroke-width:3.5;stroke-linecap:round;stroke-linejoin:round;stroke-miterlimit:4;stroke-dasharray:none;stroke-dashoffset:263;stroke-opacity:1" />
    </clipPath>
    <filter
       inkscape:collect="always"
       style="color-interpolation-filters:sRGB"
       id="filter4201"
       x="-0.012"
       width="1.024"
       y="-0.012"
       height="1.024">
      <feGaussianBlur
         inkscape:collect="always"
         stdDeviation="0.22"
         id="feGaussianBlur4203" />
    </filter>
  </defs>
  <sodipodi:namedview
     pagecolor="#ffffff"
     bordercolor="#666666"
     borderopacity="1"
     objecttolerance="10"
     gridtolerance="10"
     guidetolerance="10"
     inkscape:pageopacity="0"
     inkscape:pageshadow="2"
     inkscape:window-width="1262"
     inkscape:window-height="799"
     id="namedview6"
     showgrid="false"
     fit-margin-top="0"
     fit-margin-left="0"
     fit-margin-right="0"
     fit-margin-bottom="0"
     inkscape:zoom="4.2142857"
     inkscape:cx="77.717449"
     inkscape:cy="136.84847"
     inkscape:window-x="0"
     inkscape:window-y="0"
     inkscape:window-maximized="0"
     inkscape:current-layer="svg2" />
  <text
     xml:space="preserve"
     style="font-style:normal;font-variant:normal;font-weight:normal;font-stretch:normal;font-size:180px;line-height:125%;font-family:Griffo;-inkscape-font-specification:Griffo;text-align:start;letter-spacing:0px;word-spacing:0px;writing-mode:lr-tb;text-anchor:start;fill:#000000;fill-opacity:1;stroke:none;stroke-width:1px;stroke-linecap:butt;stroke-linejoin:miter;stroke-opacity:1"
     x="-1775.1007"
     y="892.92627"
     id="text4157"
     sodipodi:linespacing="125%"><tspan
       sodipodi:role="line"
       id="tspan4159"
       x="-1775.1007"
       y="892.92627"
       style="font-style:normal;font-variant:normal;font-weight:bold;font-stretch:normal;font-family:'Open Sans';-inkscape-font-specification:'Open Sans Bold'" /></text>
  <circle
     r="22"
     cy="577.9502"
     cx="-247.5946"
     id="circle4198"
     style="opacity:0.2;fill:#333333;fill-opacity:1;fill-rule:nonzero;stroke:none;stroke-width:3.5;stroke-linecap:round;stroke-linejoin:round;stroke-miterlimit:4;stroke-dasharray:none;stroke-dashoffset:263;stroke-opacity:1;filter:url(#filter4201)"
     transform="matrix(4.2984871,0,0,4.2984871,1161.1185,-2381.1478)" />
  <circle
     r="94.566711"
     cy="94.566719"
     cx="96.836166"
     id="circle4193"
     style="opacity:0.2;fill:#f5f5f5;fill-opacity:1;fill-rule:nonzero;stroke:none;stroke-width:3.5;stroke-linecap:round;stroke-linejoin:round;stroke-miterlimit:4;stroke-dasharray:none;stroke-dashoffset:263;stroke-opacity:1" />
  <circle
     style="opacity:1;fill:#3f51b5;fill-opacity:1;fill-rule:nonzero;stroke:none;stroke-width:3.5;stroke-linecap:round;stroke-linejoin:round;stroke-miterlimit:4;stroke-dasharray:none;stroke-dashoffset:263;stroke-opacity:1"
     id="circle4191"
     cx="96.836288"
     cy="98.865456"
     r="94.566711" />
  <path
     style="fill:#ffffff;fill-opacity:1"
     d="m 86.528683,135.14097 c -5.233412,-1.43795 -7.947548,-3.4206 -17.827267,-13.02262 -7.748081,-7.5303 -7.748081,-7.5303 -16.796233,-7.53148 -12.938685,-0.002 -11.558802,2.33975 -11.558802,-19.613304 0,-22.0841 -1.654866,-19.61167 13.127716,-19.6133 10.617061,-10e-4 10.617061,-10e-4 14.801151,-4.05602 6.170492,-5.97988 8.445944,-6.92927 16.607837,-6.92927 5.282603,0 7.096276,0.29265 9.941487,1.60409 2.103554,0.96959 2.103554,0.96959 4.097436,0.0296 2.925402,-1.3792 4.676562,-1.63416 11.188892,-1.62901 10.31013,0.008 13.04177,1.30639 20.16044,9.58142 2.55257,2.96721 2.55257,2.96721 11.54817,2.96838 12.8555,0.002 11.50625,-2.20622 11.50625,18.82873 0,21.188914 1.68169,18.827104 -13.40666,18.828724 -10.896,10e-4 -10.896,10e-4 -11.95295,1.64879 -1.83663,2.86305 -5.03195,5.20886 -7.8034,5.72878 -0.78994,0.1482 -1.61238,0.7188 -2.80572,1.9466 -2.0936,2.15405 -3.93841,3.44083 -5.86077,4.08797 -0.83409,0.28079 -2.19789,1.15042 -3.12695,1.99392 -2.13003,1.93385 -4.51089,3.08147 -7.19078,3.46609 -1.180093,0.16938 -2.781142,0.52488 -3.557875,0.79001 -4.287502,1.46351 -7.942179,1.75739 -11.091972,0.89194 z m 8.767141,-6.91068 c 1.304078,-0.77192 1.815203,-0.89692 3.333395,-0.81522 2.473711,0.13314 4.865191,-0.96373 6.182251,-2.83554 1.46919,-2.088 1.54353,-2.14569 2.76508,-2.14569 2.42134,0 5.84876,-2.66809 6.68591,-5.20468 0.34692,-1.0512 0.38825,-1.07209 2.13397,-1.07885 5.29409,-0.0205 8.62385,-4.9132 6.36158,-9.34762 -1.32744,-2.60199 -11.9837,-15.752024 -12.76482,-15.752024 -0.23078,0 -1.92997,1.69221 -3.77598,3.76047 -7.79615,8.734754 -15.929699,9.729624 -22.269475,2.72395 -5.286557,-5.84184 -4.430107,-10.97286 3.352896,-20.08735 2.482775,-2.90752 4.514138,-5.44335 4.514138,-5.63517 0,-0.78671 -2.782626,-1.19222 -7.531959,-1.09762 -6.424015,0.12795 -6.831429,0.32744 -12.975003,6.35322 -4.656835,4.56755 -4.656835,4.56755 -8.315722,4.56755 -2.012392,0 -3.663636,0.10592 -3.669438,0.23538 -0.01491,0.33243 -0.01629,21.413014 -0.0016,24.165044 0.01215,2.27527 0.01215,2.27527 1.659765,2.28943 2.537561,0.0218 2.779874,0.20781 12.247627,9.40193 10.972123,10.65501 12.622937,11.71133 17.987575,11.50989 2.139683,-0.0803 2.782087,-0.23893 4.079812,-1.0071 z M 52.03661,107.2061 c 1.683214,-1.93721 0.260267,-5.17132 -2.27528,-5.17132 -3.12807,0 -4.163516,4.76235 -1.300204,5.98006 1.100457,0.468 2.800197,0.0835 3.575484,-0.80874 z m 82.30897,-1.4838 c 0.0182,-7.108114 0.025,-21.780294 0.0102,-22.125134 -0.0118,-0.27458 -0.67127,-0.39229 -2.19801,-0.39229 -2.18118,0 -2.18118,0 -6.51776,-4.93159 -6.58619,-7.48989 -7.11907,-7.73336 -16.56502,-7.5687 -8.01143,0.13966 -7.63239,-0.0694 -14.700757,8.10665 -8.357463,9.66709 -8.888918,10.95954 -5.945164,14.45799 3.993303,4.74577 7.775853,3.45258 15.478061,-5.2917 4.79166,-5.43992 5.84029,-6.34181 7.37375,-6.34181 1.24251,0 2.65901,1.56835 2.65901,2.94404 0,0.95755 0.40963,1.56906 2.99399,4.4695 3.20727,3.59954 10.30967,12.700684 11.19341,14.343424 0.44922,0.83504 0.91166,2.08428 1.6756,4.52644 0.0829,0.26501 0.83871,0.39229 2.32939,0.39229 2.20667,0 2.20667,0 2.2133,-2.58911 z m 11.84051,1.4838 c 1.68321,-1.93721 0.26027,-5.17132 -2.27528,-5.17132 -3.12807,0 -4.16352,4.76235 -1.3002,5.98006 1.10045,0.468 2.80019,0.0835 3.57548,-0.80874 z"
     id="path4452"
     inkscape:connector-curvature="0" />
</svg>
