<?xml version="1.0" encoding="UTF-8" standalone="no"?>
<svg
   xmlns:osb="http://www.openswatchbook.org/uri/2009/osb"
   xmlns:dc="http://purl.org/dc/elements/1.1/"
   xmlns:cc="http://creativecommons.org/ns#"
   xmlns:rdf="http://www.w3.org/1999/02/22-rdf-syntax-ns#"
   xmlns:svg="http://www.w3.org/2000/svg"
   xmlns="http://www.w3.org/2000/svg"
   xmlns:xlink="http://www.w3.org/1999/xlink"
   xmlns:sodipodi="http://sodipodi.sourceforge.net/DTD/sodipodi-0.dtd"
   xmlns:inkscape="http://www.inkscape.org/namespaces/inkscape"
   width="193.67264"
   height="200"
   viewBox="0 0 193.67264 200"
   id="svg2"
   version="1.1"
   inkscape:version="0.91 r13725"
   sodipodi:docname="button-recycle.svg">
  <metadata
     id="metadata10">
    <rdf:RDF>
      <cc:Work
         rdf:about="">
        <dc:format>image/svg+xml</dc:format>
        <dc:type
           rdf:resource="http://purl.org/dc/dcmitype/StillImage" />
        <dc:title></dc:title>
      </cc:Work>
    </rdf:RDF>
  </metadata>
  <defs
     id="defs8">
    <inkscape:path-effect
       is_visible="true"
       id="path-effect4886"
       effect="spiro" />
    <inkscape:path-effect
       effect="spiro"
       id="path-effect4882"
       is_visible="true" />
    <inkscape:path-effect
       effect="spiro"
       id="path-effect4878"
       is_visible="true" />
    <linearGradient
       osb:paint="solid"
       id="linearGradient4444">
      <stop
         id="stop4446"
         offset="0"
         style="stop-color:#002fa7;stop-opacity:1;" />
    </linearGradient>
    <linearGradient
       gradientUnits="userSpaceOnUse"
       y2="393.59521"
       x2="3401.6096"
       y1="393.59521"
       x1="1481.6096"
       id="linearGradient4448"
       xlink:href="#linearGradient4444"
       inkscape:collect="always" />
    <linearGradient
       gradientTransform="translate(-1761.6116,2283.4524)"
       y2="393.59521"
       x2="3401.6096"
       y1="393.59521"
       x1="1481.6096"
       gradientUnits="userSpaceOnUse"
       id="linearGradient4452"
       xlink:href="#linearGradient4444"
       inkscape:collect="always" />
    <clipPath
       clipPathUnits="userSpaceOnUse"
       id="clipPath8097">
      <rect
         style="display:inline;opacity:1;fill:#757575;fill-opacity:1;fill-rule:nonzero;stroke:none;stroke-width:3.5;stroke-linecap:round;stroke-linejoin:round;stroke-miterlimit:4;stroke-dasharray:none;stroke-dashoffset:263;stroke-opacity:1"
         id="rect8099"
         width="600"
         height="436.36365"
         x="1762.1588"
         y="-1034.2781"
         ry="40.909092"
         rx="40.909092"
         clip-path="none"
         mask="none" />
    </clipPath>
    <clipPath
       id="clipPath8097-5"
       clipPathUnits="userSpaceOnUse">
      <rect
         mask="none"
         clip-path="none"
         rx="40.909092"
         ry="40.909092"
         y="-1034.2781"
         x="1762.1588"
         height="436.36365"
         width="600"
         id="rect8099-3"
         style="display:inline;opacity:1;fill:#757575;fill-opacity:1;fill-rule:nonzero;stroke:none;stroke-width:3.5;stroke-linecap:round;stroke-linejoin:round;stroke-miterlimit:4;stroke-dasharray:none;stroke-dashoffset:263;stroke-opacity:1" />
    </clipPath>
    <filter
       inkscape:collect="always"
       style="color-interpolation-filters:sRGB"
       id="filter4201"
       x="-0.012"
       width="1.024"
       y="-0.012"
       height="1.024">
      <feGaussianBlur
         inkscape:collect="always"
         stdDeviation="0.22"
         id="feGaussianBlur4203" />
    </filter>
  </defs>
  <sodipodi:namedview
     pagecolor="#ffffff"
     bordercolor="#666666"
     borderopacity="1"
     objecttolerance="10"
     gridtolerance="10"
     guidetolerance="10"
     inkscape:pageopacity="0"
     inkscape:pageshadow="2"
     inkscape:window-width="1262"
     inkscape:window-height="799"
     id="namedview6"
     showgrid="false"
     fit-margin-top="0"
     fit-margin-left="0"
     fit-margin-right="0"
     fit-margin-bottom="0"
     inkscape:zoom="0.7449875"
     inkscape:cx="19.285245"
     inkscape:cy="41.93322"
     inkscape:window-x="0"
     inkscape:window-y="0"
     inkscape:window-maximized="0"
     inkscape:current-layer="svg2" />
  <text
     xml:space="preserve"
     style="font-style:normal;font-variant:normal;font-weight:normal;font-stretch:normal;font-size:180px;line-height:125%;font-family:Griffo;-inkscape-font-specification:Griffo;text-align:start;letter-spacing:0px;word-spacing:0px;writing-mode:lr-tb;text-anchor:start;fill:#000000;fill-opacity:1;stroke:none;stroke-width:1px;stroke-linecap:butt;stroke-linejoin:miter;stroke-opacity:1"
     x="-1775.1007"
     y="892.92627"
     id="text4157"
     sodipodi:linespacing="125%"><tspan
       sodipodi:role="line"
       id="tspan4159"
       x="-1775.1007"
       y="892.92627"
       style="font-style:normal;font-variant:normal;font-weight:bold;font-stretch:normal;font-family:'Open Sans';-inkscape-font-specification:'Open Sans Bold'" /></text>
  <circle
     r="22"
     cy="577.9502"
     cx="-247.5946"
     id="circle4198"
     style="opacity:0.2;fill:#696969;fill-opacity:1;fill-rule:nonzero;stroke:none;stroke-width:3.5;stroke-linecap:round;stroke-linejoin:round;stroke-miterlimit:4;stroke-dasharray:none;stroke-dashoffset:263;stroke-opacity:1;filter:url(#filter4201)"
     transform="matrix(4.2984871,0,0,4.2984871,1161.1185,-2381.1478)" />
  <circle
     r="94.566711"
     cy="94.566719"
     cx="96.836166"
     id="circle4193"
     style="opacity:0.2;fill:#f5f5f5;fill-opacity:1;fill-rule:nonzero;stroke:none;stroke-width:3.5;stroke-linecap:round;stroke-linejoin:round;stroke-miterlimit:4;stroke-dasharray:none;stroke-dashoffset:263;stroke-opacity:1" />
  <circle
     style="opacity:1;fill:#f5f5f5;fill-opacity:1;fill-rule:nonzero;stroke:none;stroke-width:3.5;stroke-linecap:round;stroke-linejoin:round;stroke-miterlimit:4;stroke-dasharray:none;stroke-dashoffset:263;stroke-opacity:1"
     id="circle4191"
     cx="96.836288"
     cy="98.865456"
     r="94.566711" />
  <path
     id="path4525"
     d="m 94.334741,113.19608 -0.62651,15.37032 -0.0835,0.9188 -17.542178,-1.2112 q -1.50361,-0.1253 -2.79839,-1.3157 -1.29478,-1.1903 -1.96305,-2.73571 -0.45944,-1.12771 -0.60563,-2.29719 -0.14618,-1.16948 0.16707,-2.71486 0.31325,-1.54538 0.50121,-2.29719 0.18795,-0.75181 0.89799,-2.6731 0.71004,-1.92128 0.79357,-2.21365 3.25783,0.5012 21.259448,1.16948 z m -16.163858,-24.475512 7.51807,15.829722 -6.13976,-3.84257 q -2.63133,3.00723 -4.65703,6.03534 -2.0257,3.02812 -3.02811,5.22089 -1.00241,2.19277 -1.6498,3.94699 -0.64739,1.75422 -0.77269,2.63132 l -0.16707,0.87711 -7.93575,-14.91085 q -0.71004,-1.08594 -0.75181,-2.33895 -0.0418,-1.25301 0.25061,-1.96305 l 0.33413,-0.751812 q 1.46185,-2.63133 4.76145,-7.85221 l -5.84739,-3.59197 z m 51.415267,21.593582 -7.85221,14.99435 q -0.5012,1.2113 -1.5245,1.9422 -1.02329,0.7309 -1.81686,0.8562 l -0.75181,0.1671 q -2.96546,0.2924 -9.14699,0.5012 l 0.33413,6.8498 -9.606419,-15.32852 8.812849,-15.11968 0.29237,7.2257 q 7.1004,0.66828 11.82008,0.20884 4.71968,-0.45944 7.10041,-1.37831 z M 96.798991,71.721368 q -1.96305,2.63132 -11.068268,18.16868 l -13.24017,-7.81045 -0.79357,-0.5012 9.39759,-14.86908 q 0.83534,-1.29478 2.50603,-1.87952 1.67068,-0.58474 3.34136,-0.41767 1.00241,0.0835 2.02571,0.5012 1.02329,0.41767 1.754208,0.87711 0.73093,0.45944 1.73334,1.37831 1.00241,0.91888 1.50361,1.44097 0.50121,0.52209 1.50362,1.6498 1.00241,1.12771 1.33654,1.46185 z m 27.357439,12.82249 8.85462,15.16145 q 0.75181,1.545382 0.52209,3.174302 -0.22972,1.62891 -1.14859,3.09076 -0.54297,0.83534 -1.37832,1.54538 -0.83534,0.71005 -1.58714,1.16948 -0.75181,0.45944 -2.02571,0.91888 -1.27389,0.45944 -1.96305,0.66827 -0.68916,0.20884 -2.15101,0.58474 -1.46184,0.37591 -1.92128,0.50121 -1.42008,-3.00723 -11.06828,-18.210452 l 13.0731,-8.14458 z m -5.97269,-9.43936 5.93093,-3.46667 -9.18876,15.57912 -17.500409,-0.83534 6.306829,-3.59197 q -1.42008,-3.71727 -3.13253,-6.93333 -1.712449,-3.21607 -3.153419,-5.15824 -1.44096,-1.94217 -2.69397,-3.34136 -1.25301,-1.3992 -1.96306,-1.94217 l -0.71004,-0.54298 16.915669,0.0418 q 1.29478,-0.1253 2.42249,0.43856 1.12771,0.56385 1.62892,1.19036 l 0.45944,0.6265 q 1.62891,2.5478 4.67791,7.93575 z"
     inkscape:connector-curvature="0"
     style="fill:#3f51b5;fill-opacity:1" />
</svg>
