<?xml version="1.0" encoding="UTF-8" standalone="no"?>
<svg
   xmlns:dc="http://purl.org/dc/elements/1.1/"
   xmlns:cc="http://creativecommons.org/ns#"
   xmlns:rdf="http://www.w3.org/1999/02/22-rdf-syntax-ns#"
   xmlns:svg="http://www.w3.org/2000/svg"
   xmlns="http://www.w3.org/2000/svg"
   xmlns:sodipodi="http://sodipodi.sourceforge.net/DTD/sodipodi-0.dtd"
   xmlns:inkscape="http://www.inkscape.org/namespaces/inkscape"
   width="24.601168"
   height="23.999998"
   viewBox="0 0 24.601168 23.999998"
   id="svg2"
   version="1.1"
   inkscape:version="0.91 r13725"
   sodipodi:docname="github.svg">
  <metadata
     id="metadata10">
    <rdf:RDF>
      <cc:Work
         rdf:about="">
        <dc:format>image/svg+xml</dc:format>
        <dc:type
           rdf:resource="http://purl.org/dc/dcmitype/StillImage" />
        <dc:title></dc:title>
      </cc:Work>
    </rdf:RDF>
  </metadata>
  <defs
     id="defs8" />
  <sodipodi:namedview
     pagecolor="#ffffff"
     bordercolor="#666666"
     borderopacity="1"
     objecttolerance="10"
     gridtolerance="10"
     guidetolerance="10"
     inkscape:pageopacity="0"
     inkscape:pageshadow="2"
     inkscape:window-width="1315"
     inkscape:window-height="860"
     id="namedview6"
     showgrid="false"
     fit-margin-top="0"
     fit-margin-left="0"
     fit-margin-right="0"
     fit-margin-bottom="0"
     inkscape:zoom="28.103415"
     inkscape:cx="12"
     inkscape:cy="11.413523"
     inkscape:window-x="114"
     inkscape:window-y="79"
     inkscape:window-maximized="0"
     inkscape:current-layer="svg2" />
  <path
     d="m 24.601167,12.300583 q 0,4.020138 -2.346398,7.23141 -2.346408,3.211273 -6.062209,4.444509 -0.432438,0.07995 -0.63264,-0.112141 -0.200212,-0.192196 -0.200212,-0.48044 l 0,-3.379483 q 0,-1.553563 -0.832852,-2.274275 0.912939,-0.09635 1.641687,-0.288346 0.728738,-0.192197 1.50554,-0.624665 0.776792,-0.432365 1.297322,-1.065025 0.52053,-0.63266 0.848874,-1.681798 0.328333,-1.049034 0.328333,-2.410401 0,-1.9379569 -1.2653,-3.2994267 Q 19.475924,6.9030872 18.755181,5.0931589 18.306723,4.949037 17.457859,5.2693647 16.608986,5.5896924 15.984352,5.9740857 L 15.375729,6.3584789 Q 13.8862,5.9421041 12.300583,5.9421041 q -1.585627,0 -3.0751451,0.4163748 Q 8.9691757,6.182273 8.5447441,5.9260109 8.1203022,5.6697487 7.2073734,5.3094441 6.2944343,4.949037 5.8299643,5.0931589 5.1252434,6.9030872 5.7178445,8.3605013 4.4525552,9.7219711 4.4525552,11.659928 q 0,1.361367 0.3283334,2.402406 0.3283333,1.041142 0.8408576,1.681797 0.5125243,0.640656 1.2893266,1.073021 0.7767921,0.432468 1.5055402,0.624665 0.7287378,0.192196 1.641677,0.288346 -0.6406555,0.57659 -0.7848081,1.649611 -0.336339,0.160215 -0.7207322,0.240271 -0.3843932,0.07995 -0.9129391,0.07995 -0.5285355,0 -1.0490655,-0.344314 Q 6.070205,19.011371 5.7018332,18.354623 5.3975168,17.842098 4.9250411,17.521771 4.4525552,17.201443 4.1322275,17.137377 l -0.3203277,-0.04818 q -0.3363492,0 -0.4644802,0.07175 -0.1281311,0.07175 -0.080056,0.184201 0.048075,0.112038 0.1441423,0.224178 0.096047,0.11214 0.2082181,0.192197 l 0.1121096,0.07995 q 0.3523605,0.160215 0.6967153,0.608674 0.3443548,0.448459 0.5045187,0.816861 l 0.1601638,0.3683 q 0.2082079,0.608674 0.7047209,0.985072 0.4965028,0.376398 1.0730927,0.48044 0.5765898,0.104145 1.1131413,0.112141 0.5365514,0.01025 0.8889119,-0.05638 l 0.3683717,-0.06355 q 0,0.608674 0.0082,1.425433 0.0082,0.816861 0.0082,0.864936 0,0.288243 -0.2082181,0.48044 Q 8.8414439,24.056037 8.4089964,23.97598 4.6931956,22.742753 2.3467979,19.531481 3.394165e-7,16.320721 3.394165e-7,12.300583 3.394165e-7,8.9531845 1.6496828,6.1262029 3.2993755,3.2993238 6.1262649,1.6497131 8.9531542,-1.8739644e-7 12.300583,-1.8739644e-7 q 3.34742,0 6.174319,1.64971328739644 2.82689,1.6496107 4.476572,4.4764898 1.649693,2.8269816 1.649693,6.1743801 z"
     id="path4"
     inkscape:connector-curvature="0"
     style="fill:#ffffff" />
</svg>
