<?xml version="1.0" encoding="UTF-8" standalone="no"?>
<!-- Created with Inkscape (http://www.inkscape.org/) -->

<svg
   xmlns:osb="http://www.openswatchbook.org/uri/2009/osb"
   xmlns:dc="http://purl.org/dc/elements/1.1/"
   xmlns:cc="http://creativecommons.org/ns#"
   xmlns:rdf="http://www.w3.org/1999/02/22-rdf-syntax-ns#"
   xmlns:svg="http://www.w3.org/2000/svg"
   xmlns="http://www.w3.org/2000/svg"
   xmlns:xlink="http://www.w3.org/1999/xlink"
   xmlns:sodipodi="http://sodipodi.sourceforge.net/DTD/sodipodi-0.dtd"
   xmlns:inkscape="http://www.inkscape.org/namespaces/inkscape"
   width="200"
   height="200"
   viewBox="0 0 200.00001 200"
   id="svg4217"
   version="1.1"
   inkscape:version="0.91 r13725"
   sodipodi:docname="osd-logo-home-tondo.svg">
  <defs
     id="defs4219">
    <inkscape:path-effect
       effect="spiro"
       id="path-effect4886"
       is_visible="true" />
    <inkscape:path-effect
       is_visible="true"
       id="path-effect4882"
       effect="spiro" />
    <inkscape:path-effect
       is_visible="true"
       id="path-effect4878"
       effect="spiro" />
    <linearGradient
       id="linearGradient4444"
       osb:paint="solid">
      <stop
         style="stop-color:#002fa7;stop-opacity:1;"
         offset="0"
         id="stop4446" />
    </linearGradient>
    <linearGradient
       inkscape:collect="always"
       xlink:href="#linearGradient4444"
       id="linearGradient4448"
       x1="1481.6096"
       y1="393.59521"
       x2="3401.6096"
       y2="393.59521"
       gradientUnits="userSpaceOnUse" />
    <linearGradient
       inkscape:collect="always"
       xlink:href="#linearGradient4444"
       id="linearGradient4452"
       gradientUnits="userSpaceOnUse"
       x1="1481.6096"
       y1="393.59521"
       x2="3401.6096"
       y2="393.59521"
       gradientTransform="translate(-1761.6116,2283.4524)" />
    <clipPath
       id="clipPath8097"
       clipPathUnits="userSpaceOnUse">
      <rect
         mask="none"
         clip-path="none"
         rx="40.909092"
         ry="40.909092"
         y="-1034.2781"
         x="1762.1588"
         height="436.36365"
         width="600"
         id="rect8099"
         style="display:inline;opacity:1;fill:#757575;fill-opacity:1;fill-rule:nonzero;stroke:none;stroke-width:3.5;stroke-linecap:round;stroke-linejoin:round;stroke-miterlimit:4;stroke-dasharray:none;stroke-dashoffset:263;stroke-opacity:1" />
    </clipPath>
    <clipPath
       clipPathUnits="userSpaceOnUse"
       id="clipPath8097-5">
      <rect
         style="display:inline;opacity:1;fill:#757575;fill-opacity:1;fill-rule:nonzero;stroke:none;stroke-width:3.5;stroke-linecap:round;stroke-linejoin:round;stroke-miterlimit:4;stroke-dasharray:none;stroke-dashoffset:263;stroke-opacity:1"
         id="rect8099-3"
         width="600"
         height="436.36365"
         x="1762.1588"
         y="-1034.2781"
         ry="40.909092"
         rx="40.909092"
         clip-path="none"
         mask="none" />
    </clipPath>
    <filter
       height="1.024"
       y="-0.012"
       width="1.024"
       x="-0.012"
       id="filter4201"
       style="color-interpolation-filters:sRGB"
       inkscape:collect="always">
      <feGaussianBlur
         id="feGaussianBlur4203"
         stdDeviation="0.22"
         inkscape:collect="always" />
    </filter>
  </defs>
  <sodipodi:namedview
     id="base"
     pagecolor="#ffffff"
     bordercolor="#666666"
     borderopacity="1.0"
     inkscape:pageopacity="0.0"
     inkscape:pageshadow="2"
     inkscape:zoom="1.2747564"
     inkscape:cx="-164.39083"
     inkscape:cy="77.593232"
     inkscape:document-units="px"
     inkscape:current-layer="layer1"
     showgrid="false"
     inkscape:window-width="1440"
     inkscape:window-height="851"
     inkscape:window-x="49"
     inkscape:window-y="23"
     inkscape:window-maximized="0"
     fit-margin-top="0"
     fit-margin-left="0"
     fit-margin-right="0"
     fit-margin-bottom="0"
     units="px" />
  <metadata
     id="metadata4222">
    <rdf:RDF>
      <cc:Work
         rdf:about="">
        <dc:format>image/svg+xml</dc:format>
        <dc:type
           rdf:resource="http://purl.org/dc/dcmitype/StillImage" />
        <dc:title />
      </cc:Work>
    </rdf:RDF>
  </metadata>
  <g
     inkscape:label="Livello 1"
     inkscape:groupmode="layer"
     id="layer1"
     transform="translate(271.5947,-400.95042)">
    <text
       xml:space="preserve"
       style="font-style:normal;font-variant:normal;font-weight:normal;font-stretch:normal;font-size:180px;line-height:125%;font-family:Griffo;-inkscape-font-specification:Griffo;text-align:start;letter-spacing:0px;word-spacing:0px;writing-mode:lr-tb;text-anchor:start;fill:#000000;fill-opacity:1;stroke:none;stroke-width:1px;stroke-linecap:butt;stroke-linejoin:miter;stroke-opacity:1"
       x="-578.04022"
       y="1760.8597"
       id="text4157"
       sodipodi:linespacing="125%"><tspan
         sodipodi:role="line"
         id="tspan4159"
         x="-578.04022"
         y="1760.8597"
         style="font-style:normal;font-variant:normal;font-weight:bold;font-stretch:normal;font-family:'Open Sans';-inkscape-font-specification:'Open Sans Bold'" /></text>
    <circle
       r="22"
       cy="577.9502"
       cx="-247.5946"
       id="circle4198"
       style="opacity:0.2;fill:#696969;fill-opacity:1;fill-rule:nonzero;stroke:none;stroke-width:3.5;stroke-linecap:round;stroke-linejoin:round;stroke-miterlimit:4;stroke-dasharray:none;stroke-dashoffset:263;stroke-opacity:1;filter:url(#filter4201)"
       transform="matrix(4.2984871,0,0,4.2984871,892.68752,-1980.1974)" />
    <circle
       r="94.566711"
       cy="495.51712"
       cx="-171.59482"
       id="circle4193"
       style="opacity:0.2;fill:#f5f5f5;fill-opacity:1;fill-rule:nonzero;stroke:none;stroke-width:3.5;stroke-linecap:round;stroke-linejoin:round;stroke-miterlimit:4;stroke-dasharray:none;stroke-dashoffset:263;stroke-opacity:1" />
    <circle
       style="opacity:1;fill:#ffffff;fill-opacity:1;fill-rule:nonzero;stroke:none;stroke-width:3.5;stroke-linecap:round;stroke-linejoin:round;stroke-miterlimit:4;stroke-dasharray:none;stroke-dashoffset:263;stroke-opacity:1"
       id="circle4191"
       cx="-171.5947"
       cy="499.81586"
       r="94.566711" />
    <g
       id="g4186"
       transform="matrix(0.85499898,0,0,0.85499898,-24.881458,71.50378)">
      <path
         inkscape:export-ydpi="300"
         inkscape:export-xdpi="300"
         inkscape:export-filename="/Users/lucacorsato/Documents/o{s}d/o{s}d_semplice.png"
         d="m -219.59368,500.91344 c 0,2.72066 0.43729,4.77737 1.312,6.17033 0.89087,1.39279 2.33254,2.08937 4.32492,2.08937 1.9762,0 3.39362,-0.68833 4.25216,-2.06475 0.87471,-1.39312 1.31204,-3.458 1.31209,-6.19495 -5e-5,-2.7205 -0.43738,-4.76071 -1.31209,-6.12092 -0.87479,-1.36017 -2.30833,-2.04046 -4.30066,-2.04046 -1.97625,0 -3.40167,0.68029 -4.27642,2.04046 -0.87471,1.34379 -1.312,3.38404 -1.312,6.12092 m 18.78192,0 c -5e-5,4.47391 -1.16625,7.97287 -3.4988,10.4967 -2.33266,2.52392 -5.58029,3.78559 -9.74333,3.78559 -2.60787,0 -4.90812,-0.57334 -6.90046,-1.72059 -1.99241,-1.16379 -3.52308,-2.82695 -4.59233,-4.99033 -1.06904,-2.16317 -1.60358,-4.687 -1.60358,-7.57137 0,-4.49017 1.15808,-7.98092 3.4745,-10.47209 2.31641,-2.491 5.57233,-3.73654 9.76758,-3.73654 2.60804,0 4.90804,0.57354 6.90067,1.72079 1.99233,1.14725 3.52304,2.79417 4.59216,4.94121 1.069,2.14683 1.60354,4.66229 1.60359,7.54663"
         style="font-style:normal;font-variant:normal;font-weight:bold;font-stretch:normal;font-size:28px;line-height:125%;font-family:'Open Sans';-inkscape-font-specification:'Open Sans Bold';text-align:start;letter-spacing:0px;word-spacing:0px;writing-mode:lr-tb;text-anchor:start;display:inline;fill:#e91e63;fill-opacity:1;stroke:none"
         id="path4207"
         inkscape:connector-curvature="0" />
      <path
         inkscape:export-ydpi="300"
         inkscape:export-xdpi="300"
         inkscape:export-filename="/Users/lucacorsato/Documents/o{s}d/o{s}d_semplice.png"
         inkscape:connector-curvature="0"
         id="path4209"
         style="font-style:normal;font-variant:normal;font-weight:bold;font-stretch:normal;font-size:28px;line-height:125%;font-family:'Open Sans';-inkscape-font-specification:'Open Sans Bold';text-align:start;letter-spacing:0px;word-spacing:0px;writing-mode:lr-tb;text-anchor:start;display:inline;fill:#3f51b5;fill-opacity:1;stroke:none"
         d="m -131.17605,515.19581 c -3.19109,0 -5.70175,-1.25367 -7.53221,-3.761 -1.81421,-2.50729 -2.72125,-5.98158 -2.72125,-10.42279 0,-4.50667 0.92316,-8.01371 2.76983,-10.52092 1.86279,-2.52387 4.42204,-3.78579 7.67796,-3.78579 3.41779,0 6.02579,1.34388 7.82367,4.03142 l 0.24291,0 c -0.3725,-2.04842 -0.55879,-3.87584 -0.55875,-5.48167 l 0,-8.80054 7.43488,0 0,38.24983 -5.68559,0 -1.43358,-3.56433 -0.31583,0 c -1.68475,2.70387 -4.25209,4.05579 -7.70229,4.05579 m 2.59979,-5.97329 c 1.89512,0 3.28012,-0.55725 4.15483,-1.67142 0.89079,-1.11454 1.37671,-3.0075 1.45788,-5.67871 l 0,-0.8112 c 0,-2.94971 -0.45355,-5.06367 -1.36071,-6.34221 -0.89092,-1.27809 -2.34875,-1.91742 -4.37346,-1.91742 -1.65233,0 -2.94,0.71296 -3.86329,2.13883 -0.90713,1.40934 -1.36067,3.466 -1.36067,6.16988 0,2.70417 0.46171,4.73621 1.38496,6.0965 0.92329,1.34387 2.24337,2.01575 3.96042,2.01575" />
      <path
         inkscape:export-ydpi="300"
         inkscape:export-xdpi="300"
         inkscape:export-filename="/Users/lucacorsato/Documents/o{s}d/o{s}d_semplice.png"
         d="m -177.68105,542.6171 c -4.08188,0 -7.22442,-1.26204 -9.42726,-3.78583 -2.17066,-2.52383 -3.25591,-6.07988 -3.25591,-10.6685 l 0,-14.50342 c 0,-3.83475 -0.8585,-6.70287 -2.57538,-8.60391 -1.68475,-1.93371 -4.30879,-2.96609 -7.8725,-3.09721 l 0,-2.21234 c 6.96534,-0.13125 10.44788,-3.99866 10.44788,-11.60275 l 0,-14.45437 c 0,-4.62138 1.05287,-8.17738 3.15862,-10.66854 2.10584,-2.49088 5.28054,-3.73646 9.52455,-3.73646 l 6.56037,0 0,2.31083 -3.013,0 c -2.94812,0 -5.05383,0.90138 -6.31725,2.70392 -1.231,1.77 -1.84654,4.39196 -1.8465,7.86625 l 0,16.22408 c -4e-5,3.11388 -0.84242,5.8015 -2.52704,8.06309 -1.68454,2.2287 -3.95234,3.65437 -6.80325,4.27733 l 0,0.1475 c 2.88329,0.68817 5.15108,2.14667 6.80325,4.37558 1.68462,2.19584 2.527,4.8835 2.52704,8.06296 l 0,16.42071 c -4e-5,3.47425 0.6155,6.09629 1.8465,7.86642 1.26342,1.80237 3.36913,2.70375 6.31725,2.70375 l 3.013,0 0,2.31083 -6.56037,0"
         style="font-style:normal;font-variant:normal;font-weight:normal;font-stretch:normal;font-size:56px;line-height:125%;font-family:'Liberation Serif';-inkscape-font-specification:'Liberation Serif';text-align:start;letter-spacing:0px;word-spacing:0px;writing-mode:lr-tb;text-anchor:start;display:inline;fill:#e91e63;fill-opacity:1;stroke:none"
         id="path4211"
         inkscape:connector-curvature="0" />
      <path
         inkscape:export-ydpi="300"
         inkscape:export-xdpi="300"
         inkscape:export-filename="/Users/lucacorsato/Documents/o{s}d/o{s}d_semplice.png"
         d="m -171.12068,542.6171 0,-2.31104 3.01279,0 c 2.94804,0 5.03754,-0.90137 6.26871,-2.70375 1.26338,-1.77012 1.89521,-4.39217 1.89525,-7.86642 l 0,-16.4207 c -4e-5,-3.17938 0.82592,-5.86696 2.47829,-8.06296 1.65213,-2.22892 3.93609,-3.68742 6.85179,-4.37559 l 0,-0.1475 c -2.85091,-0.62279 -5.11875,-2.065 -6.8032,-4.32641 -1.68475,-2.26167 -2.52692,-4.93275 -2.52688,-8.01396 l 0,-16.22408 c -4e-5,-3.4743 -0.63187,-6.09625 -1.89525,-7.8663 -1.23117,-1.8025 -3.32067,-2.70387 -6.26871,-2.70387 l -3.01279,0 0,-2.31083 6.60875,0 c 4.21154,2e-4 7.37029,1.24575 9.476,3.73666 2.10567,2.49092 3.1585,6.04713 3.15854,10.66834 l 0,14.45437 c -4e-5,7.60404 3.48275,11.47154 10.44788,11.60271 l 0,2.21233 c -3.49879,0.13125 -6.12296,1.14704 -7.87221,3.04817 -1.71713,1.90108 -2.57575,4.78533 -2.57567,8.65296 l 0,14.50341 c -4e-5,4.55592 -1.10146,8.09571 -3.30429,10.61938 -2.17062,2.55654 -5.28058,3.83496 -9.33025,3.83496 l -6.60875,0"
         style="font-style:normal;font-variant:normal;font-weight:normal;font-stretch:normal;font-size:56px;line-height:125%;font-family:'Liberation Serif';-inkscape-font-specification:'Liberation Serif';text-align:start;letter-spacing:0px;word-spacing:0px;writing-mode:lr-tb;text-anchor:start;display:inline;fill:#3f51b5;fill-opacity:1;stroke:none"
         id="path4213"
         inkscape:connector-curvature="0" />
      <path
         d="m -161.47035,506.12848 q 0,3.91479 -2.73125,5.96325 -2.7085,2.04841 -8.1255,2.04841 -2.77679,0 -4.73416,-0.38708 -1.95742,-0.36417 -3.66446,-1.0925 l 0,-5.73567 q 1.93462,0.91046 4.34725,1.52496 2.43537,0.61454 4.27896,0.61454 3.77825,0 3.77825,-2.185 0,-0.81937 -0.50071,-1.32012 -0.50075,-0.52346 -1.72979,-1.16075 -1.22909,-0.66008 -3.27754,-1.52496 -2.93609,-1.22908 -4.3245,-2.27608 -1.36563,-1.04696 -2.00292,-2.38984 -0.6145,-1.36562 -0.6145,-3.34579 0,-3.39129 2.61742,-5.23491 2.64025,-1.86634 7.46545,-1.86634 4.59763,0 8.94488,2.00292 l -2.09396,5.00729 q -1.91187,-0.81937 -3.57342,-1.34287 -1.6615,-0.5235 -3.39129,-0.5235 -3.07266,0 -3.07266,1.66154 0,0.93316 0.9787,1.616 1.00146,0.68279 4.34725,2.02566 2.98163,1.2063 4.37,2.2533 1.38838,1.047 2.04846,2.41262 0.66004,1.36563 0.66004,3.25475 z"
         style="font-style:normal;font-variant:normal;font-weight:bold;font-stretch:normal;font-size:medium;line-height:125%;font-family:'Open Sans';-inkscape-font-specification:'Open Sans Bold';text-align:start;letter-spacing:0px;word-spacing:0px;writing-mode:lr-tb;text-anchor:start;fill:#757575;fill-opacity:1;stroke:none"
         id="path4215"
         inkscape:connector-curvature="0" />
    </g>
  </g>
</svg>
