<?xml version="1.0" encoding="UTF-8" standalone="no"?>
<!-- Created with Inkscape (http://www.inkscape.org/) -->

<svg
   xmlns:osb="http://www.openswatchbook.org/uri/2009/osb"
   xmlns:dc="http://purl.org/dc/elements/1.1/"
   xmlns:cc="http://creativecommons.org/ns#"
   xmlns:rdf="http://www.w3.org/1999/02/22-rdf-syntax-ns#"
   xmlns:svg="http://www.w3.org/2000/svg"
   xmlns="http://www.w3.org/2000/svg"
   xmlns:xlink="http://www.w3.org/1999/xlink"
   xmlns:sodipodi="http://sodipodi.sourceforge.net/DTD/sodipodi-0.dtd"
   xmlns:inkscape="http://www.inkscape.org/namespaces/inkscape"
   inkscape:export-ydpi="320"
   inkscape:export-xdpi="320"
   inkscape:export-filename="/Users/lucacorsato/Documents/lavori/DISALVO.png"
   sodipodi:docname="osd-logo-home.svg"
   inkscape:version="0.91 r13725"
   version="1.1"
   id="svg2"
   height="720"
   width="720">
  <sodipodi:namedview
     fit-margin-bottom="0"
     fit-margin-right="0"
     fit-margin-left="0"
     fit-margin-top="0"
     inkscape:window-maximized="0"
     inkscape:window-y="0"
     inkscape:window-x="73"
     inkscape:window-height="851"
     inkscape:window-width="1440"
     showgrid="false"
     inkscape:current-layer="layer5"
     inkscape:document-units="px"
     inkscape:cy="-269.37481"
     inkscape:cx="-1095.17"
     inkscape:zoom="0.14938552"
     inkscape:pageshadow="2"
     inkscape:pageopacity="0.0"
     borderopacity="1.0"
     bordercolor="#666666"
     pagecolor="#ffffff"
     id="base" />
  <defs
     id="defs4">
    <linearGradient
       osb:paint="solid"
       id="linearGradient4444">
      <stop
         id="stop4446"
         offset="0"
         style="stop-color:#002fa7;stop-opacity:1;" />
    </linearGradient>
    <linearGradient
       gradientUnits="userSpaceOnUse"
       y2="393.59521"
       x2="3401.6096"
       y1="393.59521"
       x1="1481.6096"
       id="linearGradient4448"
       xlink:href="#linearGradient4444"
       inkscape:collect="always" />
    <linearGradient
       gradientTransform="translate(-1761.6116,2283.4524)"
       y2="393.59521"
       x2="3401.6096"
       y1="393.59521"
       x1="1481.6096"
       gradientUnits="userSpaceOnUse"
       id="linearGradient4452"
       xlink:href="#linearGradient4444"
       inkscape:collect="always" />
    <clipPath
       clipPathUnits="userSpaceOnUse"
       id="clipPath8097">
      <rect
         style="display:inline;opacity:1;fill:#757575;fill-opacity:1;fill-rule:nonzero;stroke:none;stroke-width:3.5;stroke-linecap:round;stroke-linejoin:round;stroke-miterlimit:4;stroke-dasharray:none;stroke-dashoffset:263;stroke-opacity:1"
         id="rect8099"
         width="600"
         height="436.36365"
         x="1762.1588"
         y="-1034.2781"
         ry="40.909092"
         rx="40.909092"
         clip-path="none"
         mask="none" />
    </clipPath>
    <inkscape:path-effect
       effect="spiro"
       id="path-effect4886"
       is_visible="true" />
    <inkscape:path-effect
       is_visible="true"
       id="path-effect4882"
       effect="spiro" />
    <inkscape:path-effect
       is_visible="true"
       id="path-effect4878"
       effect="spiro" />
    <linearGradient
       inkscape:collect="always"
       xlink:href="#linearGradient4444"
       id="linearGradient4360"
       x1="1481.6096"
       y1="393.59521"
       x2="3401.6096"
       y2="393.59521"
       gradientUnits="userSpaceOnUse" />
    <linearGradient
       inkscape:collect="always"
       xlink:href="#linearGradient4444"
       id="linearGradient4362"
       gradientUnits="userSpaceOnUse"
       x1="1481.6096"
       y1="393.59521"
       x2="3401.6096"
       y2="393.59521"
       gradientTransform="translate(-1761.6116,2283.4524)" />
    <clipPath
       id="clipPath8097-1"
       clipPathUnits="userSpaceOnUse">
      <rect
         mask="none"
         clip-path="none"
         rx="40.909092"
         ry="40.909092"
         y="-1034.2781"
         x="1762.1588"
         height="436.36365"
         width="600"
         id="rect8099-33"
         style="display:inline;opacity:1;fill:#757575;fill-opacity:1;fill-rule:nonzero;stroke:none;stroke-width:3.5;stroke-linecap:round;stroke-linejoin:round;stroke-miterlimit:4;stroke-dasharray:none;stroke-dashoffset:263;stroke-opacity:1" />
    </clipPath>
    <linearGradient
       gradientUnits="userSpaceOnUse"
       y2="393.59521"
       x2="3401.6096"
       y1="393.59521"
       x1="1481.6096"
       id="linearGradient4513"
       xlink:href="#linearGradient4444"
       inkscape:collect="always" />
    <linearGradient
       gradientTransform="translate(-1761.6116,2283.4524)"
       y2="393.59521"
       x2="3401.6096"
       y1="393.59521"
       x1="1481.6096"
       gradientUnits="userSpaceOnUse"
       id="linearGradient4515"
       xlink:href="#linearGradient4444"
       inkscape:collect="always" />
    <clipPath
       clipPathUnits="userSpaceOnUse"
       id="clipPath8097-5">
      <rect
         style="display:inline;opacity:1;fill:#757575;fill-opacity:1;fill-rule:nonzero;stroke:none;stroke-width:3.5;stroke-linecap:round;stroke-linejoin:round;stroke-miterlimit:4;stroke-dasharray:none;stroke-dashoffset:263;stroke-opacity:1"
         id="rect8099-3"
         width="600"
         height="436.36365"
         x="1762.1588"
         y="-1034.2781"
         ry="40.909092"
         rx="40.909092"
         clip-path="none"
         mask="none" />
    </clipPath>
    <filter
       height="1.0285"
       y="-0.01425"
       width="1.0207273"
       x="-0.010363636"
       id="filter4961"
       style="color-interpolation-filters:sRGB"
       inkscape:collect="always">
      <feGaussianBlur
         id="feGaussianBlur4963"
         stdDeviation="0.19"
         inkscape:collect="always" />
    </filter>
  </defs>
  <metadata
     id="metadata7">
    <rdf:RDF>
      <cc:Work
         rdf:about="">
        <dc:format>image/svg+xml</dc:format>
        <dc:type
           rdf:resource="http://purl.org/dc/dcmitype/StillImage" />
        <dc:title></dc:title>
      </cc:Work>
    </rdf:RDF>
  </metadata>
  <g
     inkscape:groupmode="layer"
     id="layer5"
     inkscape:label="sfondo"
     transform="translate(-1902.1588,610.1869)"
     style="display:inline">
    <text
       xml:space="preserve"
       style="font-style:normal;font-variant:normal;font-weight:normal;font-stretch:normal;font-size:180px;line-height:125%;font-family:Griffo;-inkscape-font-specification:Griffo;text-align:start;letter-spacing:0px;word-spacing:0px;writing-mode:lr-tb;text-anchor:start;fill:#000000;fill-opacity:1;stroke:none;stroke-width:1px;stroke-linecap:butt;stroke-linejoin:miter;stroke-opacity:1"
       x="-255.30142"
       y="1233.9358"
       id="text4157-4"
       sodipodi:linespacing="125%"><tspan
         sodipodi:role="line"
         id="tspan4159-7"
         x="-255.30142"
         y="1233.9358"
         style="font-style:normal;font-variant:normal;font-weight:bold;font-stretch:normal;font-family:'Open Sans';-inkscape-font-specification:'Open Sans Bold'" /></text>
    <g
       id="g4488"
       transform="matrix(3.75,0,0,3.75,-22.35063,-1787.8541)">
      <rect
         y="314.04459"
         x="513.20251"
         height="192"
         width="192"
         id="rect4950"
         style="opacity:1;fill:none;fill-opacity:1;fill-rule:nonzero;stroke:none;stroke-width:3.5;stroke-linecap:round;stroke-linejoin:round;stroke-miterlimit:4;stroke-dasharray:none;stroke-dashoffset:263;stroke-opacity:1" />
      <rect
         transform="matrix(4,0,0,4,-2388.076,-1006.9228)"
         style="display:inline;opacity:0.2;fill:#696969;fill-opacity:1;fill-rule:nonzero;stroke:none;stroke-width:3.5;stroke-linecap:round;stroke-linejoin:round;stroke-miterlimit:4;stroke-dasharray:none;stroke-dashoffset:263;stroke-opacity:1;filter:url(#filter4961)"
         id="rect4958"
         width="44"
         height="32"
         x="727.31964"
         y="339.24139"
         rx="3"
         ry="3" />
      <rect
         style="display:inline;opacity:0.2;fill:#ffffff;fill-opacity:1;fill-rule:nonzero;stroke:none;stroke-width:3.5;stroke-linecap:round;stroke-linejoin:round;stroke-miterlimit:4;stroke-dasharray:none;stroke-dashoffset:263;stroke-opacity:1"
         id="rect4955"
         width="176"
         height="128"
         x="521.20251"
         y="342.04288"
         rx="12"
         ry="12" />
      <rect
         ry="12"
         rx="12"
         y="346.04459"
         x="521.20251"
         height="128"
         width="176"
         id="rect4952"
         style="display:inline;opacity:1;fill:#f5f5f5;fill-opacity:1;fill-rule:nonzero;stroke:none;stroke-width:3.5;stroke-linecap:round;stroke-linejoin:round;stroke-miterlimit:4;stroke-dasharray:none;stroke-dashoffset:263;stroke-opacity:1" />
      <path
         inkscape:connector-curvature="0"
         id="path4967"
         style="font-style:normal;font-variant:normal;font-weight:bold;font-stretch:normal;font-size:28px;line-height:125%;font-family:'Open Sans';-inkscape-font-specification:'Open Sans Bold';text-align:start;letter-spacing:0px;word-spacing:0px;writing-mode:lr-tb;text-anchor:start;display:inline;fill:#e91e63;fill-opacity:1;stroke:none"
         d="m 563.1233,410.00908 c 0,2.61184 0.4198,4.58628 1.25952,5.92352 0.85524,1.33708 2.23924,2.0058 4.15192,2.0058 1.89716,0 3.25788,-0.6608 4.08208,-1.98216 0.83972,-1.33744 1.25956,-3.31968 1.2596,-5.94716 -4e-5,-2.61168 -0.41988,-4.57028 -1.2596,-5.87608 -0.83984,-1.30576 -2.216,-1.95884 -4.12864,-1.95884 -1.89724,0 -3.2656,0.65308 -4.10536,1.95884 -0.83972,1.29004 -1.25952,3.24864 -1.25952,5.87608 m 18.03064,0 c -4e-5,4.29496 -1.1196,7.65396 -3.35884,10.07684 -2.23936,2.42296 -5.35708,3.63416 -9.3536,3.63416 -2.50356,0 -4.7118,-0.5504 -6.62444,-1.65176 -1.91272,-1.11724 -3.38216,-2.71388 -4.40864,-4.79072 -1.02628,-2.07664 -1.53944,-4.49952 -1.53944,-7.26852 0,-4.31056 1.11176,-7.66168 3.33548,-10.0532 2.2238,-2.39136 5.34948,-3.58708 9.37692,-3.58708 2.50372,0 4.71172,0.5506 6.62464,1.65196 1.91264,1.10136 3.38212,2.6824 4.40848,4.74352 1.02624,2.061 1.5394,4.47584 1.53944,7.2448"
         inkscape:export-filename="/Users/lucacorsato/Documents/o{s}d/o{s}d_semplice.png"
         inkscape:export-xdpi="300"
         inkscape:export-ydpi="300" />
      <path
         d="m 648.00422,423.72016 c -3.06348,0 -5.47368,-1.20352 -7.23092,-3.61056 -1.74164,-2.407 -2.6124,-5.74232 -2.6124,-10.00588 0,-4.3264 0.88624,-7.69316 2.65904,-10.10008 1.78828,-2.42292 4.24516,-3.63436 7.37084,-3.63436 3.28108,0 5.78476,1.29008 7.51072,3.87016 l 0.2332,0 c -0.3576,-1.96648 -0.53644,-3.7208 -0.5364,-5.2624 l 0,-8.44852 7.13748,0 0,36.71984 -5.45816,0 -1.37624,-3.42176 -0.3032,0 c -1.61736,2.59572 -4.082,3.89356 -7.3942,3.89356 m 2.4958,-5.73436 c 1.81932,0 3.14892,-0.53496 3.98864,-1.60456 0.85516,-1.06996 1.32164,-2.8872 1.39956,-5.45156 l 0,-0.77876 c 0,-2.83172 -0.4354,-4.86112 -1.30628,-6.08852 -0.85528,-1.22696 -2.2548,-1.84072 -4.19852,-1.84072 -1.58624,0 -2.8224,0.68444 -3.70876,2.05328 -0.87084,1.35296 -1.30624,3.32736 -1.30624,5.92308 0,2.596 0.44324,4.54676 1.32956,5.85264 0.88636,1.29012 2.15364,1.93512 3.802,1.93512"
         style="font-style:normal;font-variant:normal;font-weight:bold;font-stretch:normal;font-size:28px;line-height:125%;font-family:'Open Sans';-inkscape-font-specification:'Open Sans Bold';text-align:start;letter-spacing:0px;word-spacing:0px;writing-mode:lr-tb;text-anchor:start;display:inline;fill:#3f51b5;fill-opacity:1;stroke:none"
         id="path4969"
         inkscape:connector-curvature="0"
         inkscape:export-filename="/Users/lucacorsato/Documents/o{s}d/o{s}d_semplice.png"
         inkscape:export-xdpi="300"
         inkscape:export-ydpi="300" />
      <path
         inkscape:connector-curvature="0"
         id="path4971"
         style="font-style:normal;font-variant:normal;font-weight:normal;font-stretch:normal;font-size:56px;line-height:125%;font-family:'Liberation Serif';-inkscape-font-specification:'Liberation Serif';text-align:start;letter-spacing:0px;word-spacing:0px;writing-mode:lr-tb;text-anchor:start;display:inline;fill:#e91e63;fill-opacity:1;stroke:none"
         d="m 603.35942,450.0446 c -3.9186,0 -6.93544,-1.21156 -9.05016,-3.6344 -2.08384,-2.42292 -3.12568,-5.83668 -3.12568,-10.24176 l 0,-13.92328 c 0,-3.68136 -0.82416,-6.43476 -2.47236,-8.25976 -1.61736,-1.85636 -4.13644,-2.84744 -7.5576,-2.97332 l 0,-2.12384 c 6.68672,-0.126 10.02996,-3.83872 10.02996,-11.13864 l 0,-13.8762 c 0,-4.43652 1.01072,-7.85028 3.03228,-10.2418 2.0216,-2.39124 5.06932,-3.587 9.14356,-3.587 l 6.29796,0 0,2.2184 -2.89248,0 c -2.83024,0 -4.85168,0.86532 -6.06456,2.59576 -1.1818,1.6992 -1.77268,4.21628 -1.77264,7.5516 l 0,15.57512 c -4e-5,2.98932 -0.80872,5.56944 -2.42596,7.74056 -1.61716,2.13956 -3.79428,3.50816 -6.53112,4.10624 l 0,0.1416 c 2.76796,0.66064 4.94504,2.0608 6.53112,4.20056 1.61724,2.108 2.42592,4.68816 2.42596,7.74044 l 0,15.76388 c -4e-5,3.33528 0.59084,5.85244 1.77264,7.55176 1.21288,1.73028 3.23436,2.5956 6.06456,2.5956 l 2.89248,0 0,2.2184 -6.29796,0"
         inkscape:export-filename="/Users/lucacorsato/Documents/o{s}d/o{s}d_semplice.png"
         inkscape:export-xdpi="300"
         inkscape:export-ydpi="300" />
      <path
         inkscape:connector-curvature="0"
         id="path4973"
         style="font-style:normal;font-variant:normal;font-weight:normal;font-stretch:normal;font-size:56px;line-height:125%;font-family:'Liberation Serif';-inkscape-font-specification:'Liberation Serif';text-align:start;letter-spacing:0px;word-spacing:0px;writing-mode:lr-tb;text-anchor:start;display:inline;fill:#3f51b5;fill-opacity:1;stroke:none"
         d="m 609.65738,450.0446 0,-2.2186 2.89228,0 c 2.83012,0 4.83604,-0.86532 6.01796,-2.5956 1.2128,-1.69932 1.8194,-4.21648 1.8194,-7.55176 l 0,-15.76388 c 0,-3.0522 0.79292,-5.63228 2.37916,-7.74044 1.58608,-2.13976 3.77864,-3.53992 6.57776,-4.20056 l 0,-0.1416 c -2.73688,-0.59788 -4.91404,-1.9824 -6.53112,-4.15336 -1.61732,-2.1712 -2.4258,-4.73544 -2.4258,-7.6934 l 0,-15.57512 c 0,-3.33532 -0.6066,-5.8524 -1.8194,-7.55164 -1.18192,-1.7304 -3.18784,-2.59572 -6.01796,-2.59572 l -2.89228,0 0,-2.2184 6.3444,0 c 4.04304,2e-4 7.07548,1.19592 9.09696,3.5872 2.0214,2.39128 3.03216,5.80524 3.03216,10.2416 l 0,13.8762 c 0,7.29988 3.34348,11.01268 10.03,11.1386 l 0,2.12384 c -3.35884,0.126 -5.87804,1.10116 -7.55736,2.92624 -1.64844,1.82504 -2.47264,4.59392 -2.47264,8.30684 l 0,13.92328 c 0,4.37368 -1.05736,7.77188 -3.17208,10.1946 -2.08384,2.45428 -5.06936,3.68156 -8.95704,3.68156 l -6.3444,0"
         inkscape:export-filename="/Users/lucacorsato/Documents/o{s}d/o{s}d_semplice.png"
         inkscape:export-xdpi="300"
         inkscape:export-ydpi="300" />
      <path
         inkscape:connector-curvature="0"
         id="path4975"
         style="font-style:normal;font-variant:normal;font-weight:bold;font-stretch:normal;font-size:medium;line-height:125%;font-family:'Open Sans';-inkscape-font-specification:'Open Sans Bold';text-align:start;letter-spacing:0px;word-spacing:0px;writing-mode:lr-tb;text-anchor:start;fill:#757575;fill-opacity:1;stroke:none"
         d="m 618.92166,415.01552 q 0,3.7582 -2.62196,5.72472 -2.60016,1.96648 -7.80048,1.96648 -2.66572,0 -4.54484,-0.3716 -1.87912,-0.3496 -3.51784,-1.0488 l 0,-5.50624 q 1.85724,0.87404 4.17336,1.46396 2.33796,0.58996 4.1078,0.58996 3.62712,0 3.62712,-2.0976 0,-0.7866 -0.48068,-1.26732 -0.48072,-0.50252 -1.6606,-1.11432 -1.17996,-0.63368 -3.14644,-1.46396 -2.81864,-1.17992 -4.15152,-2.18504 -1.311,-1.00508 -1.9228,-2.29424 -0.58996,-1.311 -0.58996,-3.21196 0,-3.25564 2.51276,-5.02552 2.53464,-1.79168 7.16684,-1.79168 4.41368,0 8.58708,1.9228 l -2.0102,4.807 q -1.8354,-0.7866 -3.43048,-1.28916 -1.59508,-0.50256 -3.25564,-0.50256 -2.94976,0 -2.94976,1.59508 0,0.89584 0.93952,1.55136 0.96144,0.65548 4.17336,1.94464 2.86236,1.15804 4.19524,2.16316 1.33284,1.00512 1.96648,2.31612 0.63364,1.311 0.63364,3.12456 z" />
    </g>
  </g>
  <g
     transform="translate(-1902.1588,320.3249)"
     style="display:inline"
     inkscape:label="logo"
     id="layer11"
     inkscape:groupmode="layer">
    <text
       sodipodi:linespacing="125%"
       id="text4157"
       y="910.95593"
       x="-368.75"
       style="font-style:normal;font-variant:normal;font-weight:normal;font-stretch:normal;font-size:180px;line-height:125%;font-family:Griffo;-inkscape-font-specification:Griffo;text-align:start;letter-spacing:0px;word-spacing:0px;writing-mode:lr-tb;text-anchor:start;fill:#000000;fill-opacity:1;stroke:none;stroke-width:1px;stroke-linecap:butt;stroke-linejoin:miter;stroke-opacity:1"
       xml:space="preserve"><tspan
         style="font-style:normal;font-variant:normal;font-weight:bold;font-stretch:normal;font-family:'Open Sans';-inkscape-font-specification:'Open Sans Bold'"
         y="910.95593"
         x="-368.75"
         id="tspan4159"
         sodipodi:role="line" /></text>
  </g>
</svg>
