<?xml version="1.0" encoding="utf-8"?>
<svg xmlns="http://www.w3.org/2000/svg" xmlns:xlink="http://www.w3.org/1999/xlink" version="1.1" width="400" height="400">
<path style="fill:#3f1f00;fill-opacity:0.8;stroke:#000000;stroke-width:2;stroke-linejoin:round;stroke-linecap:round" d="M 315.541687289,276.715880096 210.504547128,341.705396998 118.451741291,268.305771277 166.597118685,157.952790918 288.405404152,163.150524018 315.541687289,276.715880096" /><path style="fill:#3f2323;fill-opacity:0.8;stroke:#000000;stroke-width:2;stroke-linejoin:round;stroke-linecap:round" d="M 288.405404152,163.150524018 166.597118685,157.952790918 118.451741291,74.5232869347 210.504547128,28.1587509077 315.541687289,82.9333957541 288.405404152,163.150524018" /><path style="fill:#3f2428;fill-opacity:0.8;stroke:#000000;stroke-width:2;stroke-linejoin:round;stroke-linecap:round" d="M 166.597118685,157.952790918 118.451741291,74.5232869347 40.5508842674,133.313998167 40.5508842674,253.078159915 118.451741291,268.305771277 166.597118685,157.952790918" /><path style="fill:#3f284e;fill-opacity:0.8;stroke:#000000;stroke-width:2;stroke-linejoin:round;stroke-linecap:round" d="M 288.405404152,163.150524018 315.541687289,276.715880096 359.449115733,266.686001833 359.449115733,146.921840085 315.541687289,82.9333957541 288.405404152,163.150524018" /><path style="fill:#3f2957;fill-opacity:0.8;stroke:#000000;stroke-width:2;stroke-linejoin:round;stroke-linecap:round" d="M 210.504547128,341.705396998 118.451741291,268.305771277 40.5508842674,253.078159915 84.4583127111,317.066604246 189.495452872,371.841249092 210.504547128,341.705396998" /><path style="fill:#3f2c6e;fill-opacity:0.8;stroke:#000000;stroke-width:2;stroke-linejoin:round;stroke-linecap:round" d="M 210.504547128,341.705396998 189.495452872,371.841249092 281.548258709,325.476713065 359.449115733,266.686001833 315.541687289,276.715880096 210.504547128,341.705396998" /><path style="fill:#3f3190;fill-opacity:0.8;stroke:#000000;stroke-width:2;stroke-linejoin:round;stroke-linecap:round" d="M 210.504547128,28.1587509077 118.451741291,74.5232869347 40.5508842674,133.313998167 84.4583127111,123.284119904 189.495452872,58.2946030023 210.504547128,28.1587509077" /><path style="fill:#3f34a7;fill-opacity:0.8;stroke:#000000;stroke-width:2;stroke-linejoin:round;stroke-linecap:round" d="M 210.504547128,28.1587509077 189.495452872,58.2946030023 281.548258709,131.694228723 359.449115733,146.921840085 315.541687289,82.9333957541 210.504547128,28.1587509077" /><path style="fill:#3f35b0;fill-opacity:0.8;stroke:#000000;stroke-width:2;stroke-linejoin:round;stroke-linecap:round" d="M 111.594595848,236.849475982 84.4583127111,317.066604246 40.5508842674,253.078159915 40.5508842674,133.313998167 84.4583127111,123.284119904 111.594595848,236.849475982" /><path style="fill:#3f39d6;fill-opacity:0.8;stroke:#000000;stroke-width:2;stroke-linejoin:round;stroke-linecap:round" d="M 281.548258709,131.694228723 359.449115733,146.921840085 359.449115733,266.686001833 281.548258709,325.476713065 233.402881315,242.047209082 281.548258709,131.694228723" /><path style="fill:#3f3adb;fill-opacity:0.8;stroke:#000000;stroke-width:2;stroke-linejoin:round;stroke-linecap:round" d="M 111.594595848,236.849475982 233.402881315,242.047209082 281.548258709,325.476713065 189.495452872,371.841249092 84.4583127111,317.066604246 111.594595848,236.849475982" /><path style="fill:#3f3fff;fill-opacity:0.8;stroke:#000000;stroke-width:2;stroke-linejoin:round;stroke-linecap:round" d="M 189.495452872,58.2946030023 84.4583127111,123.284119904 111.594595848,236.849475982 233.402881315,242.047209082 281.548258709,131.694228723 189.495452872,58.2946030023" /></svg>