<?xml version="1.0" encoding="UTF-8" standalone="no"?>
<svg
   xmlns:dc="http://purl.org/dc/elements/1.1/"
   xmlns:cc="http://creativecommons.org/ns#"
   xmlns:rdf="http://www.w3.org/1999/02/22-rdf-syntax-ns#"
   xmlns:svg="http://www.w3.org/2000/svg"
   xmlns="http://www.w3.org/2000/svg"
   xmlns:sodipodi="http://sodipodi.sourceforge.net/DTD/sodipodi-0.dtd"
   xmlns:inkscape="http://www.inkscape.org/namespaces/inkscape"
   width="24"
   height="24"
   viewBox="0 0 24 24"
   id="svg2"
   version="1.1"
   inkscape:version="0.91 r13725"
   sodipodi:docname="comments-o.svg">
  <metadata
     id="metadata10">
    <rdf:RDF>
      <cc:Work
         rdf:about="">
        <dc:format>image/svg+xml</dc:format>
        <dc:type
           rdf:resource="http://purl.org/dc/dcmitype/StillImage" />
        <dc:title></dc:title>
      </cc:Work>
    </rdf:RDF>
  </metadata>
  <defs
     id="defs8" />
  <sodipodi:namedview
     pagecolor="#ffffff"
     bordercolor="#666666"
     borderopacity="1"
     objecttolerance="10"
     gridtolerance="10"
     guidetolerance="10"
     inkscape:pageopacity="0"
     inkscape:pageshadow="2"
     inkscape:window-width="1185"
     inkscape:window-height="682"
     id="namedview6"
     showgrid="false"
     inkscape:zoom="0.13169643"
     inkscape:cx="-132.88136"
     inkscape:cy="896"
     inkscape:window-x="0"
     inkscape:window-y="0"
     inkscape:window-maximized="0"
     inkscape:current-layer="svg2" />
  <path
     d="m 9.4285714,4.2850361 q -2.0491071,0 -3.8303571,0.6964 -1.78125,0.6964 -2.8325893,1.8884 -1.0513393,1.192 -1.0513393,2.558 0,1.0981999 0.7098214,2.1160999 0.7098215,1.0179 1.9955358,1.7679 l 1.2991071,0.75 -0.46875,1.125 q 0.4553571,-0.2679 0.8303571,-0.5224 l 0.5892858,-0.4151 0.7098214,0.1339 q 1.0446428,0.1875 2.0491071,0.1875 2.0491076,0 3.8303576,-0.6964 1.78125,-0.6965 2.832589,-1.8884 1.051339,-1.192 1.051339,-2.5580999 0,-1.366 -1.051339,-2.558 -1.051339,-1.192 -2.832589,-1.8884 -1.78125,-0.6964 -3.8303576,-0.6964 z m 0,-1.7143 q 2.5580356,0 4.7343746,0.9174 2.17634,0.9174 3.435268,2.4978 1.258929,1.5803 1.258929,3.4419 0,1.8615999 -1.258929,3.4419999 -1.258928,1.5803 -3.435268,2.4978 -2.176339,0.9174 -4.7343746,0.9174 -1.1517857,0 -2.3571428,-0.2143 -1.6607143,1.1786 -3.7232143,1.7143 -0.4821429,0.1205 -1.1517857,0.2143 l -0.040179,0 q -0.1473214,0 -0.2745536,-0.1072 -0.1272321,-0.1071 -0.1540178,-0.2812 -0.013393,-0.04 -0.013393,-0.087 0,-0.047 0.0067,-0.087 0.0067,-0.04 0.026786,-0.08 l 0.033482,-0.067 0.046875,-0.074 0.053571,-0.067 0.060268,-0.067 0.053571,-0.06 q 0.066964,-0.08 0.3080357,-0.3348 0.2410715,-0.2545 0.3482143,-0.3951 0.1071429,-0.1407 0.3013393,-0.3884 0.1941964,-0.2478 0.3348214,-0.5157 0.140625,-0.2678 0.2745536,-0.5892 -1.6607143,-0.9643 -2.61160714,-2.3706 Q 0,11.021636 0,9.4278361 q 0,-1.8616 1.2589286,-3.4419 1.2589285,-1.5804 3.4352678,-2.4978 2.1763393,-0.9174 4.734375,-0.9174 z M 20.4375,18.226936 q 0.133929,0.3215 0.274554,0.5893 0.140625,0.2679 0.334821,0.5156 0.194196,0.2478 0.301339,0.3884 0.107143,0.1407 0.348215,0.3951 0.241071,0.2545 0.308035,0.3348 0.01339,0.013 0.05357,0.06 0.04018,0.047 0.06027,0.067 0.02009,0.02 0.05357,0.067 0.03348,0.047 0.04687,0.074 l 0.03348,0.067 0.02679,0.08 0.0067,0.087 -0.01339,0.087 q -0.04018,0.1875 -0.174107,0.2947 -0.133928,0.1071 -0.294643,0.094 -0.669642,-0.094 -1.151785,-0.2143 -2.0625,-0.5357 -3.723215,-1.7142 -1.205357,0.2142 -2.357142,0.2142 -3.629465,0 -6.321429,-1.7678 0.7767857,0.054 1.1785714,0.054 2.1562496,0 4.1383926,-0.6027 1.982143,-0.6027 3.535715,-1.7277 1.674107,-1.2321 2.571428,-2.8393 0.897322,-1.6071 0.897322,-3.4017999 0,-1.0312 -0.308036,-2.0357 1.727678,0.9509 2.732143,2.3839 Q 24,11.209136 24,12.856436 q 0,1.6071 -0.950893,3.0067 -0.950893,1.3995 -2.611607,2.3638 z"
     id="path4"
     inkscape:connector-curvature="0"
     style="fill:#ffffff" />
</svg>
