<?xml version="1.0" encoding="UTF-8" standalone="no"?>
<svg
   xmlns:dc="http://purl.org/dc/elements/1.1/"
   xmlns:cc="http://creativecommons.org/ns#"
   xmlns:rdf="http://www.w3.org/1999/02/22-rdf-syntax-ns#"
   xmlns:svg="http://www.w3.org/2000/svg"
   xmlns="http://www.w3.org/2000/svg"
   xmlns:sodipodi="http://sodipodi.sourceforge.net/DTD/sodipodi-0.dtd"
   xmlns:inkscape="http://www.inkscape.org/namespaces/inkscape"
   width="24.601168"
   height="23.999998"
   viewBox="0 0 24.601168 23.999998"
   id="svg2"
   version="1.1"
   inkscape:version="0.91 r13725"
   sodipodi:docname="github.svg">
  <metadata
     id="metadata10">
    <rdf:RDF>
      <cc:Work
         rdf:about="">
        <dc:format>image/svg+xml</dc:format>
        <dc:type
           rdf:resource="http://purl.org/dc/dcmitype/StillImage" />
        <dc:title />
      </cc:Work>
    </rdf:RDF>
  </metadata>
  <defs
     id="defs8" />
  <sodipodi:namedview
     pagecolor="#ffffff"
     bordercolor="#666666"
     borderopacity="1"
     objecttolerance="10"
     gridtolerance="10"
     guidetolerance="10"
     inkscape:pageopacity="0"
     inkscape:pageshadow="2"
     inkscape:window-width="1315"
     inkscape:window-height="856"
     id="namedview6"
     showgrid="false"
     fit-margin-top="0"
     fit-margin-left="0"
     fit-margin-right="0"
     fit-margin-bottom="0"
     inkscape:zoom="19.872115"
     inkscape:cx="4.0294384"
     inkscape:cy="11.413523"
     inkscape:window-x="73"
     inkscape:window-y="2"
     inkscape:window-maximized="0"
     inkscape:current-layer="svg2" />
  <path
     d="m 24.300584,12.293237 q 0,3.9219 -2.28906,7.054699 -2.28907,3.132801 -5.91407,4.335901 -0.42187,0.078 -0.61718,-0.1094 -0.19532,-0.1875 -0.19532,-0.4687 l 0,-3.2969 q 0,-1.5156 -0.8125,-2.2187 0.89063,-0.094 1.60157,-0.2813 0.71093,-0.1875 1.46875,-0.6094 0.75781,-0.4218 1.26562,-1.039 0.50781,-0.6172 0.828131,-1.640701 0.320309,-1.023399 0.320309,-2.351499 0,-1.8905999 -1.23438,-3.2187999 0.57813,-1.4218 -0.125,-3.1874999 -0.437499,-0.1406001 -1.26562,0.1718999 -0.82813,0.3125 -1.4375,0.6875001 l -0.59375,0.375 q -1.45313,-0.4062001 -3,-0.4062001 -1.54688,0 -2.9999999,0.4062001 -0.25,-0.1719001 -0.66406,-0.4219 -0.41407,-0.2500001 -1.30469,-0.6015001 -0.8906301,-0.3516 -1.3437501,-0.2109999 -0.6875,1.7656999 -0.10938,3.1874999 -1.23437,1.3282 -1.23437,3.2187999 0,1.3281 0.3203101,2.3437 0.32031,1.0157 0.8203099,1.6407 0.5,0.625 1.25782,1.0468 0.75781,0.4219 1.4687501,0.6094 0.7109299,0.187499 1.6015599,0.2813 -0.6249999,0.5625 -0.7656299,1.6093 -0.3281201,0.1563 -0.70312,0.2344 -0.375,0.078 -0.8906301,0.078 -0.5156199,0 -1.02343,-0.3359 -0.5078199,-0.335896 -0.86719,-0.976596 -0.29688,-0.5 -0.75781,-0.8125 -0.46094,-0.3125 -0.77344,-0.375 l -0.3125,-0.047 q -0.32813,0 -0.4531299,0.07 -0.1250001,0.07 -0.0781,0.179699 0.0469,0.109301 0.14062,0.2187 0.0937,0.1094 0.20313,0.187501 l 0.10937,0.078 q 0.3437501,0.1563 0.67969,0.5938 0.33594,0.4375 0.4921901,0.7969 l 0.1562499,0.3593 q 0.20312,0.5938 0.6875,0.961 0.48437,0.3672 1.04687,0.4687 0.5625,0.1016 1.0859401,0.1094 0.5234399,0.01 0.86719,-0.055 l 0.3593699,-0.062 q 0,0.5938 0.008,1.390601 0.008,0.796899 0.008,0.8438 0,0.281199 -0.20313,0.468699 -0.20312,0.187501 -0.625,0.1094 -3.6250001,-1.203104 -5.91406,-4.335904 -2.28945009,-3.1323 -2.28945009,-7.0542 0,-3.2655998 1.60936999,-6.0234998 1.60938,-2.7578001 4.3671901,-4.3671 2.75781,-1.60940008 6.0234399,-1.60940008 3.26562,0 6.02344,1.60940008 2.757811,1.6092999 4.36718,4.3671 1.60938,2.7579 1.60938,6.0234998 z"
     id="path4"
     inkscape:connector-curvature="0"
     style="fill:#ffffff" />
</svg>
