<?xml version="1.0" encoding="UTF-8" standalone="no"?>
<svg
   xmlns:dc="http://purl.org/dc/elements/1.1/"
   xmlns:cc="http://creativecommons.org/ns#"
   xmlns:rdf="http://www.w3.org/1999/02/22-rdf-syntax-ns#"
   xmlns:svg="http://www.w3.org/2000/svg"
   xmlns="http://www.w3.org/2000/svg"
   xmlns:sodipodi="http://sodipodi.sourceforge.net/DTD/sodipodi-0.dtd"
   xmlns:inkscape="http://www.inkscape.org/namespaces/inkscape"
   width="24"
   height="24"
   viewBox="0 0 24 24"
   id="svg2"
   version="1.1"
   inkscape:version="0.91 r13725"
   sodipodi:docname="medium.svg">
  <metadata
     id="metadata10">
    <rdf:RDF>
      <cc:Work
         rdf:about="">
        <dc:format>image/svg+xml</dc:format>
        <dc:type
           rdf:resource="http://purl.org/dc/dcmitype/StillImage" />
        <dc:title></dc:title>
      </cc:Work>
    </rdf:RDF>
  </metadata>
  <defs
     id="defs8" />
  <sodipodi:namedview
     pagecolor="#ffffff"
     bordercolor="#666666"
     borderopacity="1"
     objecttolerance="10"
     gridtolerance="10"
     guidetolerance="10"
     inkscape:pageopacity="0"
     inkscape:pageshadow="2"
     inkscape:window-width="1235"
     inkscape:window-height="648"
     id="namedview6"
     showgrid="false"
     inkscape:zoom="1.1614583"
     inkscape:cx="12"
     inkscape:cy="12"
     inkscape:window-x="0"
     inkscape:window-y="0"
     inkscape:window-maximized="0"
     inkscape:current-layer="svg2" />
  <path
     d="m 7.9955357,5.6384 0,15.7098 q 0,0.3349 -0.1674107,0.5692 -0.1674107,0.2344 -0.4888393,0.2344 -0.2276786,0 -0.4419643,-0.1071 L 0.66964286,18.9241 Q 0.38839286,18.7902 0.19419643,18.4755 0,18.1607 0,17.8527 L 0,2.5848 Q 0,2.317 0.13392857,2.1295 0.26785714,1.942 0.52232143,1.942 q 0.1875,0 0.58928567,0.2009 l 6.84375,3.4285 q 0.040179,0.04 0.040179,0.067 z m 0.8571429,1.3527 7.1517854,11.5982 -7.1517854,-3.5625 0,-8.0357 z M 24,7.2322 l 0,14.116 q 0,0.3349 -0.1875,0.5424 -0.1875,0.2076 -0.508929,0.2076 -0.321428,0 -0.629464,-0.1741 l -5.90625,-2.9464 z M 23.95982,5.625 q 0,0.04 -3.435267,5.6183 -3.435268,5.5781 -4.024554,6.529 L 11.276785,9.2813 15.61607,2.2232 q 0.227679,-0.375 0.696429,-0.375 0.1875,0 0.348214,0.08 l 7.245536,3.6161 q 0.05357,0.027 0.05357,0.08 z"
     id="path4"
     inkscape:connector-curvature="0"
     style="fill:#ffffff" />
</svg>
