<?xml version="1.0" encoding="UTF-8" standalone="no"?>
<svg
   xmlns:dc="http://purl.org/dc/elements/1.1/"
   xmlns:cc="http://creativecommons.org/ns#"
   xmlns:rdf="http://www.w3.org/1999/02/22-rdf-syntax-ns#"
   xmlns:svg="http://www.w3.org/2000/svg"
   xmlns="http://www.w3.org/2000/svg"
   xmlns:sodipodi="http://sodipodi.sourceforge.net/DTD/sodipodi-0.dtd"
   xmlns:inkscape="http://www.inkscape.org/namespaces/inkscape"
   width="24"
   height="24"
   viewBox="0 0 24 24"
   id="svg2"
   version="1.1"
   inkscape:version="0.91 r13725"
   sodipodi:docname="twitter.svg">
  <metadata
     id="metadata10">
    <rdf:RDF>
      <cc:Work
         rdf:about="">
        <dc:format>image/svg+xml</dc:format>
        <dc:type
           rdf:resource="http://purl.org/dc/dcmitype/StillImage" />
        <dc:title></dc:title>
      </cc:Work>
    </rdf:RDF>
  </metadata>
  <defs
     id="defs8" />
  <sodipodi:namedview
     pagecolor="#ffffff"
     bordercolor="#666666"
     borderopacity="1"
     objecttolerance="10"
     gridtolerance="10"
     guidetolerance="10"
     inkscape:pageopacity="0"
     inkscape:pageshadow="2"
     inkscape:window-width="1177"
     inkscape:window-height="769"
     id="namedview6"
     showgrid="false"
     fit-margin-top="0"
     fit-margin-left="0"
     fit-margin-right="0"
     fit-margin-bottom="0"
     inkscape:zoom="20.168951"
     inkscape:cx="14.775186"
     inkscape:cy="12"
     inkscape:window-x="0"
     inkscape:window-y="0"
     inkscape:window-maximized="0"
     inkscape:current-layer="svg2" />
  <path
     d="m 24,4.5684064 q -1.020305,1.4923857 -2.467005,2.5431877 0.01527,0.213198 0.01527,0.6395944 0,1.979695 -0.578679,3.9517555 -0.578681,1.972062 -1.758888,3.784284 -1.180199,1.812142 -2.809641,3.205523 -1.629441,1.393462 -3.928933,2.22335 -2.299535,0.82997 -4.9188247,0.82997 Q 3.4263959,21.746071 4.2510986e-8,19.53799 0.53299494,19.598903 1.1878174,19.598903 q 3.4263957,0 6.1065987,-2.101523 Q 5.6954314,17.46652 4.431472,16.515127 3.1675127,15.56333 2.6954315,14.086213 q 0.502538,0.07634 0.928934,0.07634 0.6548222,0 1.2944161,-0.167473 Q 3.2131988,13.644792 2.0939136,12.297057 0.97462011,10.949402 0.97462011,9.1676345 l 0,-0.06091 Q 2.0101531,9.6854015 3.1979703,9.7311275 2.1928942,9.0610765 1.5989857,7.9798175 1.0050769,6.8986398 1.0050769,5.6346398 q 0,-1.3401014 0.6700508,-2.4821927 1.8426396,2.2689948 4.4847678,3.6319187 2.6421349,1.3630047 5.6573635,1.5152897 -0.121827,-0.5786806 -0.121827,-1.126904 0,-2.040609 1.439091,-3.4797156 1.439082,-1.4391065 3.47969,-1.4391065 2.13198,0 3.593909,1.5532995 Q 21.86802,3.4874725 23.329949,2.6194116 22.766497,4.3707211 21.167513,5.3300714 22.583756,5.1777871 24,4.5686501 Z"
     id="path4"
     inkscape:connector-curvature="0"
     style="fill:#ffffff" />
</svg>
