<?xml version="1.0" encoding="UTF-8" standalone="no"?>
<svg
   xmlns:dc="http://purl.org/dc/elements/1.1/"
   xmlns:cc="http://creativecommons.org/ns#"
   xmlns:rdf="http://www.w3.org/1999/02/22-rdf-syntax-ns#"
   xmlns:svg="http://www.w3.org/2000/svg"
   xmlns="http://www.w3.org/2000/svg"
   xmlns:sodipodi="http://sodipodi.sourceforge.net/DTD/sodipodi-0.dtd"
   xmlns:inkscape="http://www.inkscape.org/namespaces/inkscape"
   width="29.550371"
   height="24"
   viewBox="0 0 29.550371 24"
   id="svg2"
   version="1.1"
   inkscape:version="0.91 r13725"
   sodipodi:docname="twitter.svg">
  <metadata
     id="metadata10">
    <rdf:RDF>
      <cc:Work
         rdf:about="">
        <dc:format>image/svg+xml</dc:format>
        <dc:type
           rdf:resource="http://purl.org/dc/dcmitype/StillImage" />
        <dc:title></dc:title>
      </cc:Work>
    </rdf:RDF>
  </metadata>
  <defs
     id="defs8" />
  <sodipodi:namedview
     pagecolor="#ffffff"
     bordercolor="#666666"
     borderopacity="1"
     objecttolerance="10"
     gridtolerance="10"
     guidetolerance="10"
     inkscape:pageopacity="0"
     inkscape:pageshadow="2"
     inkscape:window-width="1177"
     inkscape:window-height="769"
     id="namedview6"
     showgrid="false"
     fit-margin-top="0"
     fit-margin-left="0"
     fit-margin-right="0"
     fit-margin-bottom="0"
     inkscape:zoom="0.13169643"
     inkscape:cx="785.225"
     inkscape:cy="637.74622"
     inkscape:window-x="0"
     inkscape:window-y="0"
     inkscape:window-maximized="0"
     inkscape:current-layer="svg2" />
  <path
     d="m 29.550371,2.8497356 q -1.256266,1.837523 -3.037538,3.1313392 0.0188,0.2625033 0.0188,0.7875102 0,2.43753 -0.712508,4.86566 -0.712509,2.428131 -2.165658,4.659458 -1.453138,2.231228 -3.459413,3.94685 -2.006275,1.715721 -4.83756,2.737534 Q 12.525157,24 9.3001165,24 4.2188029,24 8.5021973e-8,21.281266 0.65625829,21.356266 1.4625185,21.356266 q 4.2188027,0 7.518844,-2.587532 -1.9687746,-0.038 -3.5250441,-1.209415 -1.5562695,-1.171915 -2.1375267,-2.990638 0.6187576,0.094 1.1437643,0.094 0.80626,0 1.5937699,-0.206203 Q 3.9563007,14.025175 2.5781634,12.365755 1.2000161,10.706434 1.2000161,8.512606 l 0,-0.074996 Q 2.4750321,9.1501146 3.9375503,9.2064154 2.7000349,8.3814048 1.9687758,7.050088 1.2375165,5.7188715 1.2375165,4.162552 q 0,-1.6500206 0.8250104,-3.0562382 2.2687784,2.793735 5.5219396,4.471856 3.2531695,1.6782204 6.9657165,1.8657236 -0.150002,-0.7125091 -0.150002,-1.3875176 0,-2.5125314 1.771903,-4.2844536 Q 17.943976,0 20.456507,0 23.08154,0 24.881563,1.912524 26.925338,1.518819 28.72536,0.4500056 28.031601,2.6063325 26.062828,3.7875474 27.806599,3.600045 29.550371,2.8500357 Z"
     id="path4"
     inkscape:connector-curvature="0"
     style="fill:#ffffff" />
</svg>
